<?xml version="1.0" encoding="utf-8"?>
<!-- Generator: Adobe Illustrator 22.0.1, SVG Export Plug-In . SVG Version: 6.00 Build 0)  -->
<svg version="1.1" id="Layer_1" xmlns="http://www.w3.org/2000/svg" xmlns:xlink="http://www.w3.org/1999/xlink" x="0px" y="0px"
	 width="71px" height="18.5px" viewBox="0 0 71 18.5" style="enable-background:new 0 0 71 18.5;" xml:space="preserve">
<style type="text/css">
	.st0{fill:none;}
	.st1{enable-background:new    ;}
	.st2{fill:#C1C1C1;}
	.st3{fill:#C4C0C0;}
</style>
<g>
	<rect y="0.5" class="st0" width="98.7" height="15.5"/>
</g>
<g class="st1">
	<path class="st2" d="M1.5,9.8c-0.4-0.4-0.6-1-0.6-1.7V2.7C0.9,2,1.1,1.4,1.5,1c0.4-0.4,1-0.6,1.6-0.6c0.7,0,1.2,0.2,1.7,0.6
		c0.4,0.4,0.6,1,0.6,1.7V3c0,0,0,0.1,0,0.1c0,0-0.1,0-0.1,0l-0.5,0c-0.1,0-0.1,0-0.1-0.1V2.7c0-0.5-0.1-0.9-0.4-1.2
		C4,1.2,3.6,1,3.1,1C2.7,1,2.3,1.2,2,1.5C1.7,1.8,1.6,2.2,1.6,2.7v5.5C1.6,8.6,1.7,9,2,9.3c0.3,0.3,0.6,0.4,1.1,0.4
		c0.5,0,0.8-0.1,1.1-0.4s0.4-0.7,0.4-1.2V7.8c0-0.1,0-0.1,0.1-0.1l0.5,0c0.1,0,0.1,0,0.1,0.1v0.2c0,0.7-0.2,1.3-0.6,1.7
		c-0.4,0.4-1,0.6-1.7,0.6C2.4,10.4,1.9,10.2,1.5,9.8z"/>
	<path class="st2" d="M7.3,10.2V0.6c0-0.1,0-0.1,0.1-0.1h0.5C8,0.5,8,0.5,8,0.6v8.9c0,0,0,0.1,0.1,0.1h3.3c0.1,0,0.1,0,0.1,0.1v0.4
		c0,0.1,0,0.1-0.1,0.1H7.4C7.3,10.3,7.3,10.3,7.3,10.2z"/>
	<path class="st2" d="M17.2,10.2l-0.4-1.8c0,0,0,0,0,0c0,0,0,0,0,0H14c0,0,0,0,0,0c0,0,0,0,0,0l-0.4,1.8c0,0.1-0.1,0.1-0.2,0.1H13
		c0,0-0.1,0-0.1,0c0,0,0-0.1,0-0.1L15,0.6c0-0.1,0.1-0.1,0.2-0.1h0.6c0.1,0,0.1,0,0.2,0.1l2.1,9.5v0c0,0.1,0,0.1-0.1,0.1h-0.5
		C17.3,10.3,17.2,10.3,17.2,10.2z M14.1,7.6C14.1,7.7,14.1,7.7,14.1,7.6l2.5,0c0,0,0,0,0-0.1l-1.2-5.8c0,0,0,0,0,0s0,0,0,0L14.1,7.6
		C14.1,7.6,14.1,7.6,14.1,7.6z"/>
	<path class="st2" d="M23.4,10.2l-1.5-4.5c0,0,0,0-0.1,0h-1.4c0,0-0.1,0-0.1,0.1v4.4c0,0.1,0,0.1-0.1,0.1h-0.5c-0.1,0-0.1,0-0.1-0.1
		V0.6c0-0.1,0-0.1,0.1-0.1h2.2c0.7,0,1.2,0.2,1.6,0.7s0.6,1.1,0.6,1.9c0,0.6-0.1,1.2-0.4,1.6s-0.6,0.7-1.1,0.9c0,0-0.1,0,0,0.1
		l1.6,4.5l0,0.1c0,0.1,0,0.1-0.1,0.1h-0.5C23.5,10.3,23.4,10.3,23.4,10.2z M20.4,1.2V5c0,0,0,0.1,0.1,0.1h1.4c0.5,0,0.8-0.2,1.1-0.5
		c0.3-0.4,0.4-0.8,0.4-1.4c0-0.6-0.1-1.1-0.4-1.4s-0.6-0.5-1.1-0.5L20.4,1.2C20.4,1.1,20.4,1.2,20.4,1.2z"/>
	<path class="st2" d="M25.7,10.2V0.6c0-0.1,0-0.1,0.1-0.1h0.5c0.1,0,0.1,0,0.1,0.1v9.5c0,0.1,0,0.1-0.1,0.1h-0.5
		C25.8,10.3,25.7,10.3,25.7,10.2z"/>
	<path class="st2" d="M30.1,10.2l-2-9.5v0c0-0.1,0-0.1,0.1-0.1h0.5c0.1,0,0.1,0,0.2,0.1l1.7,8.2c0,0,0,0,0,0s0,0,0,0l1.6-8.2
		c0-0.1,0.1-0.1,0.2-0.1h0.5C33,0.5,33,0.6,33,0.7l-2,9.5c0,0.1-0.1,0.1-0.2,0.1h-0.5C30.2,10.3,30.2,10.3,30.1,10.2z"/>
	<path class="st2" d="M34.6,10.2V0.6c0-0.1,0-0.1,0.1-0.1h0.5c0.1,0,0.1,0,0.1,0.1v9.5c0,0.1,0,0.1-0.1,0.1h-0.5
		C34.7,10.3,34.6,10.3,34.6,10.2z"/>
	<path class="st2" d="M37.6,10.2V0.6c0-0.1,0-0.1,0.1-0.1h2.1c0.7,0,1.2,0.2,1.6,0.7C41.8,1.7,42,2.3,42,3.1v4.6
		c0,0.8-0.2,1.4-0.6,1.9s-0.9,0.7-1.6,0.7h-2.1C37.6,10.3,37.6,10.3,37.6,10.2z M38.4,9.6h1.4c0.5,0,0.8-0.2,1.1-0.5
		s0.4-0.8,0.4-1.4V3.1c0-0.6-0.1-1.1-0.4-1.4c-0.3-0.3-0.6-0.5-1.1-0.5h-1.4c0,0-0.1,0-0.1,0.1L38.4,9.6C38.3,9.6,38.4,9.6,38.4,9.6
		z"/>
	<path class="st2" d="M48.1,1.2h-3.3c0,0-0.1,0-0.1,0.1V5c0,0,0,0.1,0.1,0.1h2.1c0.1,0,0.1,0,0.1,0.1v0.4c0,0.1,0,0.1-0.1,0.1h-2.1
		c0,0-0.1,0-0.1,0.1v3.8c0,0,0,0.1,0.1,0.1h3.3c0.1,0,0.1,0,0.1,0.1v0.4c0,0.1,0,0.1-0.1,0.1h-4c-0.1,0-0.1,0-0.1-0.1V0.6
		c0-0.1,0-0.1,0.1-0.1h4c0.1,0,0.1,0,0.1,0.1V1C48.2,1.1,48.2,1.2,48.1,1.2z"/>
	<path class="st2" d="M50,10.2V0.6c0-0.1,0-0.1,0.1-0.1h0.5c0.1,0,0.1,0,0.2,0.1l3,7.7c0,0,0,0,0,0s0,0,0,0V0.6c0-0.1,0-0.1,0.1-0.1
		h0.4c0.1,0,0.1,0,0.1,0.1v9.5c0,0.1,0,0.1-0.1,0.1h-0.5c-0.1,0-0.1,0-0.2-0.1l-3-7.7c0,0,0,0,0,0s0,0,0,0l0,7.7
		c0,0.1,0,0.1-0.1,0.1h-0.5C50,10.3,50,10.3,50,10.2z"/>
	<path class="st2" d="M57.2,9.8c-0.4-0.4-0.6-1-0.6-1.7V2.7c0-0.7,0.2-1.3,0.6-1.7s1-0.6,1.6-0.6c0.7,0,1.2,0.2,1.7,0.6
		c0.4,0.4,0.6,1,0.6,1.7V3c0,0,0,0.1,0,0.1c0,0-0.1,0-0.1,0l-0.5,0c-0.1,0-0.1,0-0.1-0.1V2.7c0-0.5-0.1-0.9-0.4-1.2
		C59.6,1.2,59.3,1,58.8,1c-0.5,0-0.8,0.1-1.1,0.4c-0.3,0.3-0.4,0.7-0.4,1.2v5.5c0,0.5,0.1,0.9,0.4,1.2s0.6,0.4,1.1,0.4
		c0.5,0,0.8-0.1,1.1-0.4c0.3-0.3,0.4-0.7,0.4-1.2V7.8c0-0.1,0-0.1,0.1-0.1l0.5,0c0.1,0,0.1,0,0.1,0.1v0.2c0,0.7-0.2,1.3-0.6,1.7
		c-0.4,0.4-1,0.6-1.7,0.6C58.1,10.4,57.6,10.2,57.2,9.8z"/>
	<path class="st2" d="M63,10.2V0.6c0-0.1,0-0.1,0.1-0.1h0.5c0.1,0,0.1,0,0.1,0.1v9.5c0,0.1,0,0.1-0.1,0.1h-0.5
		C63,10.3,63,10.3,63,10.2z"/>
	<path class="st2" d="M69.7,10.2l-0.4-1.8c0,0,0,0,0,0c0,0,0,0,0,0h-2.7c0,0,0,0,0,0c0,0,0,0,0,0l-0.4,1.8c0,0.1-0.1,0.1-0.2,0.1
		h-0.5c0,0-0.1,0-0.1,0s0-0.1,0-0.1l2.1-9.5c0-0.1,0.1-0.1,0.2-0.1h0.6c0.1,0,0.1,0,0.2,0.1l2.1,9.5v0c0,0.1,0,0.1-0.1,0.1h-0.5
		C69.8,10.3,69.7,10.3,69.7,10.2z M66.6,7.6C66.6,7.7,66.6,7.7,66.6,7.6l2.5,0c0,0,0,0,0-0.1l-1.2-5.8c0,0,0,0,0,0c0,0,0,0,0,0
		L66.6,7.6C66.6,7.6,66.6,7.6,66.6,7.6z"/>
</g>
<g>
	<rect x="-13.5" y="12.5" class="st0" width="98.7" height="10"/>
</g>
<g class="st1">
	<path class="st3" d="M18.5,15.4h-2.3v2.3h-0.4v-5h3.1v0.4h-2.7v1.9h2.3V15.4z"/>
	<path class="st3" d="M23.4,15.5c0,0.5-0.1,0.9-0.2,1.2c-0.2,0.3-0.4,0.6-0.7,0.8s-0.6,0.3-1,0.3c-0.6,0-1.1-0.2-1.4-0.6
		s-0.5-1-0.5-1.7V15c0-0.5,0.1-0.9,0.2-1.2c0.2-0.3,0.4-0.6,0.7-0.8c0.3-0.2,0.6-0.3,1-0.3s0.7,0.1,1,0.3c0.3,0.2,0.5,0.4,0.7,0.8
		s0.2,0.7,0.2,1.2V15.5z M23,15c0-0.6-0.1-1.1-0.4-1.4c-0.3-0.3-0.6-0.5-1.1-0.5c-0.5,0-0.8,0.2-1.1,0.5c-0.3,0.3-0.4,0.8-0.4,1.4
		v0.5c0,0.6,0.1,1.1,0.4,1.4c0.3,0.3,0.6,0.5,1.1,0.5c0.5,0,0.8-0.2,1.1-0.5s0.4-0.8,0.4-1.4V15z"/>
	<path class="st3" d="M27.7,13.1H26v4.6h-0.4v-4.6h-1.7v-0.4h3.8V13.1z"/>
	<path class="st3" d="M32.1,15.5c0,0.5-0.1,0.9-0.2,1.2c-0.2,0.3-0.4,0.6-0.7,0.8s-0.6,0.3-1,0.3c-0.6,0-1.1-0.2-1.4-0.6
		s-0.5-1-0.5-1.7V15c0-0.5,0.1-0.9,0.2-1.2c0.2-0.3,0.4-0.6,0.7-0.8c0.3-0.2,0.6-0.3,1-0.3s0.7,0.1,1,0.3c0.3,0.2,0.5,0.4,0.7,0.8
		s0.2,0.7,0.2,1.2V15.5z M31.7,15c0-0.6-0.1-1.1-0.4-1.4c-0.3-0.3-0.6-0.5-1.1-0.5c-0.5,0-0.8,0.2-1.1,0.5c-0.3,0.3-0.4,0.8-0.4,1.4
		v0.5c0,0.6,0.1,1.1,0.4,1.4c0.3,0.3,0.6,0.5,1.1,0.5c0.5,0,0.8-0.2,1.1-0.5s0.4-0.8,0.4-1.4V15z"/>
	<path class="st3" d="M36.8,17.2c-0.1,0.2-0.4,0.4-0.7,0.5c-0.3,0.1-0.7,0.2-1,0.2c-0.4,0-0.7-0.1-1-0.3s-0.5-0.5-0.7-0.8
		s-0.3-0.7-0.3-1.2v-0.6c0-0.7,0.2-1.2,0.5-1.6c0.3-0.4,0.8-0.6,1.4-0.6c0.5,0,0.9,0.1,1.2,0.4c0.3,0.3,0.5,0.6,0.6,1.1h-0.4
		c-0.1-0.4-0.2-0.6-0.4-0.8c-0.2-0.2-0.5-0.3-0.9-0.3c-0.5,0-0.8,0.2-1.1,0.5s-0.4,0.8-0.4,1.4v0.6c0,0.4,0.1,0.7,0.2,1
		c0.1,0.3,0.3,0.5,0.6,0.7c0.2,0.2,0.5,0.2,0.8,0.2c0.4,0,0.7-0.1,0.9-0.2c0.2-0.1,0.3-0.2,0.4-0.3v-1.3H35v-0.4h1.8V17.2z"/>
	<path class="st3" d="M39.8,15.7h-1.4v2.1H38v-5h1.6c0.5,0,0.9,0.1,1.2,0.4c0.3,0.3,0.4,0.6,0.4,1.1c0,0.3-0.1,0.6-0.3,0.8
		c-0.2,0.2-0.4,0.4-0.8,0.5l1.2,2.1v0H41L39.8,15.7z M38.4,15.3h1.3c0.4,0,0.6-0.1,0.9-0.3c0.2-0.2,0.3-0.5,0.3-0.8
		c0-0.4-0.1-0.6-0.3-0.8c-0.2-0.2-0.5-0.3-0.9-0.3h-1.2V15.3z"/>
	<path class="st3" d="M45.1,16.4h-2.3l-0.5,1.4h-0.4l1.9-5h0.4l1.9,5h-0.4L45.1,16.4z M43,16h2l-1-2.7L43,16z"/>
	<path class="st3" d="M49.5,15.4h-2.3v2.3h-0.4v-5h3.1v0.4h-2.7v1.9h2.3V15.4z"/>
	<path class="st3" d="M51.2,17.8h-0.4v-5h0.4V17.8z"/>
	<path class="st3" d="M55.3,16.4h-2.3l-0.5,1.4h-0.4l1.9-5h0.4l1.9,5h-0.4L55.3,16.4z M53.2,16h2l-1-2.7L53.2,16z"/>
</g>
</svg>
